<svg width="32" height="32" viewBox="0 0 32 32" fill="none" xmlns="http://www.w3.org/2000/svg">
  <defs>
    <linearGradient id="solanaGradient" x1="0%" y1="0%" x2="100%" y2="100%">
      <stop offset="0%" style="stop-color:#9945FF;stop-opacity:1" />
      <stop offset="50%" style="stop-color:#14F195;stop-opacity:1" />
      <stop offset="100%" style="stop-color:#00D4AA;stop-opacity:1" />
    </linearGradient>
    <filter id="solanaGlow">
      <feGaussianBlur stdDeviation="2" result="coloredBlur"/>
      <feMerge> 
        <feMergeNode in="coloredBlur"/>
        <feMergeNode in="SourceGraphic"/>
      </feMerge>
    </filter>
  </defs>
  
  <!-- Background Circle -->
  <circle cx="16" cy="16" r="16" fill="url(#solanaGradient)" filter="url(#solanaGlow)"/>
  
  <!-- Solana Symbol (simplified S) -->
  <path d="M16 6C18 6 20 8 20 10V22C20 24 18 26 16 26C14 26 12 24 12 22V10C12 8 14 6 16 6Z" fill="white" stroke="white" stroke-width="0.5"/>
  <path d="M16 8C17 8 18 9 18 10V22C18 23 17 24 16 24C15 24 14 23 14 22V10C14 9 15 8 16 8Z" fill="url(#solanaGradient)"/>
  
  <!-- Subtle inner ring -->
  <circle cx="16" cy="16" r="14" fill="none" stroke="rgba(255,255,255,0.2)" stroke-width="1"/>
</svg>
